<?xml version="1.0" encoding="UTF-8"?>
<svg id="Calque_3" data-name="Calque 3" xmlns="http://www.w3.org/2000/svg" viewBox="0 0 704.52 984.19">
  <defs>
    <style>
      .cls-1 {
        fill: #000;
        stroke-width: 0px;
      }
    </style>
  </defs>
  <path class="cls-1" d="M664.02,560.12c-17.47-23.71-42.5-45.76-74.74-65.89-8.07-5.04-6.26-16.16,3.1-18.96,5.16-1.54,10.04-3.28,14.66-5.21,21.32-8.92,38.35-20.35,50.64-33.98,12.06-13.38,20.75-27.46,25.83-41.84,4.99-14.16,7.52-26.96,7.52-38.06,0-38.23-12.72-69.93-37.8-94.2-24.42-23.63-56.81-41.18-96.27-52.16-38.58-10.73-80.87-16.17-125.7-16.17-48.07,0-95.03,4.99-139.59,14.84-44.76,9.89-85.46,24.35-120.97,42.99-35.98,18.88-64.97,41.77-86.16,68.04-21.72,26.91-32.74,57.36-32.74,90.49,0,23.65,7.59,44.93,22.55,63.24,14.37,17.6,32.6,32.49,54.16,44.27,17.46,9.54,19.73,11.47,44.46,19.8,53.18,17.91,59.31,17.01-4.26-90.06-4.57-6.69-9.14-13.38-13.71-20.07-5.7-7.6-8.49-15.43-8.49-23.76,0-20.59,7.49-38.67,22.91-55.29,16.05-17.3,36.88-27.18,62.37-39.5,26.03-12.57,54.05-27.47,82.84-34.18,28.74-6.7,55.68-10.1,80.07-10.1,22.86,0,46.49,1.4,70.25,4.17,23.14,2.7,44.6,7.84,63.77,15.26,18.32,7.11,33.27,17.26,44.42,30.18,10.76,12.47,16.22,29.29,16.22,49.98,0,22.37-10.76,40.24-32.9,54.61-23.2,15.06-53.52,23.56-90.12,25.24h0c-6.43.3-11.47,5.02-11.47,10.75v44.91c0,3.93,2.4,7.54,6.27,9.43h0c19.04,9.3,35.8,22.16,49.81,38.21,14.24,16.33,25.49,34.49,33.44,53.98,7.9,19.38,11.9,38.6,11.9,57.12,0,15.73-3.55,31.04-10.55,45.49-6.82,14.08-17.37,25.29-32.24,34.26-14.57,8.79-34.47,13.24-59.15,13.24s-50.03-6.52-72.45-19.38c-20.69-11.86-35.14-26.25-43.03-42.81,0,0,44.05-387.54,38.85-386.96-37.24,4.14-84.32,4.05-91.69,21.4-5.21,12.27-16.15,132.74-22.76,189.15-6.5,55.53-29.31,147.67-29.31,147.67-6.18,19.87-13.63,33.6-22.6,50.93-8.64,16.68-18.93,30.34-30.6,40.6-10.51,9.24-22.25,13.73-35.89,13.73-11.36,0-19.27-2.2-23.51-6.56-5.18-5.3-8.38-11.94-9.79-20.29-1.64-9.75-2.48-19.5-2.48-28.99,0-6.57.14-12.93.43-18.92.3-6.5.45-11.71.45-15.93h0c0-5.94-5.42-10.76-12.1-10.76h0c-14.79,0-29.33,1.46-43.23,4.35-15.12,3.14-27.91,9.05-38.01,17.58-11.02,9.31-16.61,22.61-16.61,39.55,0,23.09,7.89,42.41,23.44,57.43,14.74,14.24,32.96,24.96,54.15,31.86,20.69,6.73,40.68,10.14,59.43,10.14,29.23,0,57.92-5.82,85.25-17.29,21.58-9.06,43.47-24.73,66.42-47.62,4.98-4.97,13.75-4.74,18.48.42,16.32,17.81,35.71,32.06,57.92,42.53,30.94,14.57,70.33,21.96,117.09,21.96,38.73,0,75.19-5.71,108.35-16.97,33.85-11.5,61.52-29.25,82.25-52.78,21.06-23.91,31.74-54.22,31.74-90.07,0-33.22-13.63-68.55-40.5-105.02Z"/>
  <path class="cls-1" d="M387.77,503.75l.08-36.26.51-56.11c1.06-103.81,4.39-177.32,9.99-220.51,11.04-82.34,35.05-137.75,72.01-166.24,15.28-11.79,31.63-19.39,49.05-22.81,17.41-3.42,30.4-2.03,38.98,4.15,8.57,6.19,13.92,14.66,16.03,25.41,2.11,10.76.84,20.62-3.79,29.57-4.64,8.97-11.66,14.37-21.06,16.22-9.4,1.85-17.67.91-24.8-2.82-7.14-3.72-11.54-9.9-13.24-18.54-1.69-8.63-1.15-17.25,1.64-25.86-30.63,11.87-45.64,86.21-45.03,223,.08,21.58.39,47.23.95,76.96.55,29.72.76,51.55.62,65.5l-.51,56.11.38,36.17M469.59,487.69c-3.24,177.45-22.91,304.68-59,381.69-29.81,63.32-73.53,100.65-131.15,111.96-25.89,5.08-48.86,3.36-68.94-5.14-20.07-8.51-32.84-26.69-38.31-54.53-3.18-16.22-.84-29.95,7.03-41.19,7.87-11.25,18.36-18.16,31.45-20.73,13.1-2.57,25.04-.44,35.82,6.42,10.79,6.85,17.53,17.15,20.23,30.9s1.17,27.96-4.59,42.63c16.28,3.02,28.73,3.69,37.36,2,8.63-1.69,17.93-8.56,27.88-20.58,9.96-12.03,17.97-27.05,24.03-45.08,23.6-70.53,35.72-194.63,36.36-372.3"/>
</svg>